<svg width="412" height="227" viewBox="0 0 412 227" fill="none" xmlns="http://www.w3.org/2000/svg">
<circle cx="42" cy="42" r="40" transform="translate(185 143)" stroke="#9CFF60" stroke-width="4"/>
<mask id="mask0" mask-type="alpha" maskUnits="userSpaceOnUse" x="-25" y="-67" width="504" height="252">
<path d="M290.5 0L542.08 251.25H38.9196L290.5 0Z" transform="translate(517.5 185) rotate(-180)" fill="#C4C4C4"/>
</mask>
<g mask="url(#mask0)">
<circle cx="107" cy="107" r="105" transform="translate(120 78)" stroke="#9CFF60" stroke-width="4"/>
<path fill-rule="evenodd" clip-rule="evenodd" d="M23.2513 72.597L3.86458 0L0 1.03201L19.4055 73.6994C20.6775 73.3087 21.9596 72.9411 23.2513 72.597Z" transform="translate(176.135 9.00003)" fill="#9CFF60"/>
<path fill-rule="evenodd" clip-rule="evenodd" d="M40.7945 64.411L3.46069 0L0 2.00589L37.3732 66.4849C38.4996 65.773 39.6402 65.0815 40.7945 64.411Z" transform="translate(132.539 28)" fill="#9CFF60"/>
<path fill-rule="evenodd" clip-rule="evenodd" d="M4 76V0H0V76.0734C1.3273 76.0246 2.66078 76 4 76Z" transform="translate(223 2)" fill="#9CFF60"/>
<path fill-rule="evenodd" clip-rule="evenodd" d="M3.88467 73.6291L23.2714 1.03201L19.4068 0L0 72.6723C1.30409 72.9675 2.59914 73.2866 3.88467 73.6291Z" transform="translate(250.729 7.96799)" fill="#9CFF60"/>
<path fill-rule="evenodd" clip-rule="evenodd" d="M3.50173 67.2599L41.0902 1.99635L37.624 0L0 65.3252C1.18049 65.9488 2.34791 66.5939 3.50173 67.2599Z" transform="translate(276.91 25.0036)" fill="#9CFF60"/>
<line y1="-2" x2="144.25" y2="-2" transform="translate(255 157) rotate(-45)" stroke="#9CFF60" stroke-width="4"/>
<line y1="-2" x2="142.836" y2="-2" transform="translate(99 57) rotate(45)" stroke="#9CFF60" stroke-width="4"/>
<circle cx="185" cy="185" r="183" transform="translate(42)" stroke="#9CFF60" stroke-width="4"/>
</g>
<path d="M22.7812 59H16.9688V20.4688L5.3125 24.75V19.5L21.875 13.2812H22.7812V59Z" transform="translate(-2 159)" fill="#9CFF60"/>
<path d="M33.5938 59H3.78125V54.8438L19.5312 37.3438C21.8646 34.6979 23.4688 32.5521 24.3438 30.9062C25.2396 29.2396 25.6875 27.5208 25.6875 25.75C25.6875 23.375 24.9688 21.4271 23.5312 19.9062C22.0938 18.3854 20.1771 17.625 17.7812 17.625C14.9062 17.625 12.6667 18.4479 11.0625 20.0938C9.47917 21.7188 8.6875 23.9896 8.6875 26.9062H2.90625C2.90625 22.7188 4.25 19.3333 6.9375 16.75C9.64583 14.1667 13.2604 12.875 17.7812 12.875C22.0104 12.875 25.3542 13.9896 27.8125 16.2188C30.2708 18.4271 31.5 21.375 31.5 25.0625C31.5 29.5417 28.6458 34.875 22.9375 41.0625L10.75 54.2812H33.5938V59Z" transform="translate(-2 92)" fill="#9CFF60"/>
<path d="M12.1875 33.4375H16.5312C19.2604 33.3958 21.4062 32.6771 22.9688 31.2812C24.5312 29.8854 25.3125 28 25.3125 25.625C25.3125 20.2917 22.6562 17.625 17.3438 17.625C14.8438 17.625 12.8438 18.3438 11.3438 19.7812C9.86458 21.1979 9.125 23.0833 9.125 25.4375H3.34375C3.34375 21.8333 4.65625 18.8438 7.28125 16.4688C9.92708 14.0729 13.2812 12.875 17.3438 12.875C21.6354 12.875 25 14.0104 27.4375 16.2812C29.875 18.5521 31.0938 21.7083 31.0938 25.75C31.0938 27.7292 30.4479 29.6458 29.1562 31.5C27.8854 33.3542 26.1458 34.7396 23.9375 35.6562C26.4375 36.4479 28.3646 37.7604 29.7188 39.5938C31.0938 41.4271 31.7812 43.6667 31.7812 46.3125C31.7812 50.3958 30.4479 53.6354 27.7812 56.0312C25.1146 58.4271 21.6458 59.625 17.375 59.625C13.1042 59.625 9.625 58.4688 6.9375 56.1562C4.27083 53.8438 2.9375 50.7917 2.9375 47H8.75C8.75 49.3958 9.53125 51.3125 11.0938 52.75C12.6562 54.1875 14.75 54.9062 17.375 54.9062C20.1667 54.9062 22.3021 54.1771 23.7812 52.7188C25.2604 51.2604 26 49.1667 26 46.4375C26 43.7917 25.1875 41.7604 23.5625 40.3438C21.9375 38.9271 19.5938 38.1979 16.5312 38.1562H12.1875V33.4375Z" transform="translate(-2 28)" fill="#9CFF60"/>
<path d="M110.414 1.41421C111.195 0.633165 111.195 -0.633165 110.414 -1.41421L97.6863 -14.1421C96.9052 -14.9232 95.6389 -14.9232 94.8579 -14.1421C94.0768 -13.3611 94.0768 -12.0948 94.8579 -11.3137L106.172 0L94.8579 11.3137C94.0768 12.0948 94.0768 13.3611 94.8579 14.1421C95.6389 14.9232 96.9052 14.9232 97.6863 14.1421L110.414 1.41421ZM0 2H109V-2H0V2Z" transform="translate(45 196)" fill="#9CFF60"/>
<path d="M68.4142 1.41421C69.1953 0.633165 69.1953 -0.633165 68.4142 -1.41421L55.6863 -14.1421C54.9052 -14.9232 53.6389 -14.9232 52.8579 -14.1421C52.0768 -13.3611 52.0768 -12.0948 52.8579 -11.3137L64.1716 0L52.8579 11.3137C52.0768 12.0948 52.0768 13.3611 52.8579 14.1421C53.6389 14.9232 54.9052 14.9232 55.6863 14.1421L68.4142 1.41421ZM0 2H67V-2H0V2Z" transform="translate(45 129)" fill="#9CFF60"/>
<path d="M30.4142 1.41421C31.1953 0.633165 31.1953 -0.633165 30.4142 -1.41421L17.6863 -14.1421C16.9052 -14.9232 15.6389 -14.9232 14.8579 -14.1421C14.0768 -13.3611 14.0768 -12.0948 14.8579 -11.3137L26.1716 0L14.8579 11.3137C14.0768 12.0948 14.0768 13.3611 14.8579 14.1421C15.6389 14.9232 16.9052 14.9232 17.6863 14.1421L30.4142 1.41421ZM0 2H29V-2H0V2Z" transform="translate(45 65)" fill="#9CFF60"/>
</svg>
